<?xml version="1.0" standalone="no"?>
<!DOCTYPE svg PUBLIC "-//W3C//DTD SVG 20010904//EN"
 "http://www.w3.org/TR/2001/REC-SVG-20010904/DTD/svg10.dtd">
<svg version="1.0" xmlns="http://www.w3.org/2000/svg"
 width="537.000000pt" height="100.000000pt" viewBox="0 0 537.000000 100.000000"
 preserveAspectRatio="xMidYMid meet">

<g transform="translate(0.000000,100.000000) scale(0.100000,-0.100000)"
fill="#000000" stroke="none">
<path d="M115 773 c-5 -10 -9 -125 -9 -256 -2 -247 2 -268 40 -253 14 5 15 25
12 153 -2 106 0 147 9 150 6 2 16 -11 22 -29 26 -89 81 -233 89 -236 11 -3 17
13 62 156 18 56 37 102 41 102 5 0 10 -66 11 -147 3 -140 4 -148 23 -148 19 0
20 7 22 250 2 143 -1 256 -6 265 -8 12 -13 11 -30 -9 -11 -13 -22 -31 -25 -40
-35 -123 -90 -281 -97 -279 -6 2 -33 71 -60 153 -46 137 -69 185 -89 185 -5 0
-11 -8 -15 -17z"/>
<path d="M823 773 c-23 -15 -23 -18 -23 -253 0 -191 3 -240 14 -249 9 -8 48
-11 112 -9 91 3 99 5 99 23 0 18 -8 20 -75 23 -47 2 -79 7 -85 16 -5 7 -9 47
-7 89 l4 76 61 3 c55 3 62 5 65 25 3 20 -1 22 -60 25 l-63 3 0 90 0 90 75 3
c78 3 96 13 77 44 -10 15 -25 18 -92 17 -56 0 -87 -5 -102 -16z"/>
<path d="M1423 761 c-41 -37 -45 -62 -41 -270 l3 -173 33 -29 c28 -25 40 -29
92 -29 51 0 64 4 91 28 27 24 33 37 37 85 7 90 -3 124 -48 153 -46 31 -95 30
-95 -1 0 -14 8 -21 26 -23 47 -5 60 -31 57 -108 -3 -65 -5 -70 -32 -83 -44
-21 -88 -4 -103 39 -15 45 -17 296 -2 339 6 17 19 36 29 41 48 26 110 -2 110
-49 0 -32 22 -56 45 -47 18 6 20 58 4 89 -24 46 -61 66 -119 67 -47 0 -60 -4
-87 -29z"/>
<path d="M2133 771 c-20 -16 -35 -66 -74 -246 -42 -201 -48 -225 -53 -233 -9
-16 12 -34 32 -28 13 5 24 23 34 59 l15 52 71 3 c52 2 73 -1 77 -10 2 -7 9
-32 15 -56 11 -44 33 -63 51 -45 11 11 7 35 -56 313 -20 91 -41 172 -46 181
-12 24 -43 29 -66 10z m43 -138 c3 -16 12 -53 20 -84 8 -31 14 -71 14 -88 l0
-32 -52 3 c-49 3 -53 5 -52 28 1 29 32 179 40 192 10 16 24 7 30 -19z"/>
<path d="M3298 776 c-16 -12 -18 -35 -18 -229 0 -208 -1 -216 -21 -231 -42
-29 -9 -66 47 -52 l24 6 0 224 c0 221 0 224 23 239 18 12 20 19 11 34 -14 23
-44 27 -66 9z"/>
<path d="M3741 773 c-22 -24 -29 -484 -8 -501 8 -7 22 -9 32 -6 15 6 16 20 10
160 -10 210 -5 208 82 -31 29 -77 49 -109 56 -84 25 84 60 199 68 218 19 47
29 0 28 -127 -1 -126 5 -150 35 -139 23 9 23 482 0 512 l-15 20 -12 -20 c-7
-11 -32 -85 -57 -165 -29 -93 -50 -145 -59 -145 -9 0 -32 53 -62 140 -49 141
-68 185 -78 185 -3 -1 -12 -8 -20 -17z"/>
<path d="M4430 766 c-7 -14 -10 -101 -8 -261 l3 -240 110 0 c103 0 110 1 110
20 0 18 -8 20 -80 23 -48 2 -82 8 -87 15 -9 14 -10 112 -2 144 5 19 14 22 68
25 53 3 61 5 61 23 0 18 -8 20 -61 23 -70 3 -74 8 -74 97 0 93 2 95 86 95 79
0 100 13 74 46 -10 12 -32 14 -101 13 -77 -2 -89 -5 -99 -23z"/>
<path d="M5032 770 c-21 -20 -22 -27 -22 -253 0 -168 3 -236 12 -245 16 -16
131 -15 171 2 68 28 69 34 68 248 -1 132 -6 196 -14 206 -50 60 -170 83 -215
42z m155 -62 c22 -21 23 -27 23 -188 0 -155 -1 -168 -21 -189 -17 -18 -30 -21
-67 -19 l-47 3 -3 195 c-1 107 0 200 2 207 9 22 86 16 113 -9z"/>
<path d="M2681 767 c-7 -7 -11 -88 -11 -254 l0 -243 23 -5 c12 -3 56 -5 97 -3
67 3 75 5 75 23 0 17 -8 20 -60 23 -32 2 -65 8 -73 14 -10 9 -13 57 -12 212 0
111 1 208 0 217 0 21 -24 31 -39 16z"/>
</g>
</svg>
